<svg version="1.1" id="Layer_1" xmlns="http://www.w3.org/2000/svg" xmlns:xlink="http://www.w3.org/1999/xlink" x="0px" y="0px"
	 width="100%" viewBox="0 0 256 256" enable-background="new 0 0 256 256" xml:space="preserve">
<path fill="#000000" opacity="1.000000" stroke="none" 
	d="
M166.000000,257.000000 
	C110.666672,257.000000 55.833340,257.000000 1.000007,257.000000 
	C1.000005,171.666672 1.000005,86.333351 1.000002,1.000019 
	C86.333321,1.000013 171.666641,1.000013 257.000000,1.000006 
	C257.000000,86.333313 257.000000,171.666626 257.000000,256.999969 
	C226.833328,257.000000 196.666672,257.000000 166.000000,257.000000 
M29.000000,81.518211 
	C29.000000,90.518082 29.000000,99.517952 29.000000,108.517822 
	C29.000002,133.684174 28.984657,158.850525 29.009506,184.016846 
	C29.016806,191.410187 31.498535,193.999588 38.373398,193.999680 
	C84.039482,194.000290 129.705566,194.001724 175.371643,193.998001 
	C181.587311,193.997482 183.971451,191.787323 183.979843,185.624588 
	C184.023209,153.791718 184.102325,121.958168 183.917282,90.126320 
	C183.878265,83.413185 181.378357,81.919395 175.718048,81.950386 
	C153.552338,82.071762 131.365051,81.440254 109.228378,82.251144 
	C99.123459,82.621300 91.902229,81.117531 88.942375,70.344681 
	C87.832298,66.304413 84.471977,64.076454 80.263245,64.044899 
	C65.097626,63.931168 49.928482,63.885040 34.767300,64.168228 
	C33.150074,64.198441 30.536215,66.321083 30.184298,67.879433 
	C29.259245,71.975769 29.327465,76.296410 29.000000,81.518211 
z"/>
<path fill="#FFFFFF" opacity="1.000000" stroke="none" 
	d="
M29.000000,81.022949 
	C29.327465,76.296410 29.259245,71.975769 30.184298,67.879433 
	C30.536215,66.321083 33.150074,64.198441 34.767300,64.168228 
	C49.928482,63.885040 65.097626,63.931168 80.263245,64.044899 
	C84.471977,64.076454 87.832298,66.304413 88.942375,70.344681 
	C91.902229,81.117531 99.123459,82.621300 109.228378,82.251144 
	C131.365051,81.440254 153.552338,82.071762 175.718048,81.950386 
	C181.378357,81.919395 183.878265,83.413185 183.917282,90.126320 
	C184.102325,121.958168 184.023209,153.791718 183.979843,185.624588 
	C183.971451,191.787323 181.587311,193.997482 175.371643,193.998001 
	C129.705566,194.001724 84.039482,194.000290 38.373398,193.999680 
	C31.498535,193.999588 29.016806,191.410187 29.009506,184.016846 
	C28.984657,158.850525 29.000002,133.684174 29.000000,108.517822 
	C29.000000,99.517952 29.000000,90.518082 29.000000,81.022949 
z"/>
</svg>