<svg xmlns="http://www.w3.org/2000/svg" version="1.1" xmlns:xlink="http://www.w3.org/1999/xlink" xmlns:svgjs="http://svgjs.dev/svgjs" width="1920" height="1080" preserveAspectRatio="none" viewBox="0 0 1920 1080"><g mask="url(&quot;#SvgjsMask1068&quot;)" fill="none"><rect width="1920" height="1080" x="0" y="0" fill="rgba(15, 33, 55, 1)"></rect><path d="M0,439.972C86.967,430.254,174.44,432.219,253.007,393.686C338.154,351.926,436.856,302.852,464.53,212.144C492.165,121.565,407.978,36.917,390.233,-56.107C373.622,-143.185,419.422,-246.214,363.912,-315.331C308.42,-384.425,198.816,-363.972,116.538,-396.891C22.531,-434.503,-53.752,-540.474,-153.357,-522.287C-251.995,-504.277,-307.365,-396.764,-358.036,-310.24C-402.361,-234.552,-407.327,-147.096,-423.561,-60.899C-440.619,29.675,-478.419,118.78,-455.654,208.09C-430.796,305.612,-381.852,408.962,-292.158,454.607C-203.459,499.746,-98.908,451.025,0,439.972" fill="#0c1b2d"></path><path d="M1920 1567.165C2011.664 1549.962 2102.511 1536.397 2182.6530000000002 1488.696 2264.865 1439.763 2334.588 1373.9479999999999 2383.135 1291.507 2435.486 1202.607 2468.563 1104.101 2469.878 1000.94 2471.3450000000003 885.816 2465.1639999999998 759.94 2391.033 671.848 2316.657 583.4639999999999 2194.854 541.917 2079.446 536.975 1975.122 532.508 1894.932 625.289 1792.632 646.2239999999999 1676.054 670.081 1525.684 581.0550000000001 1443.5059999999999 667.115 1362.5810000000001 751.8620000000001 1426.362 895.659 1443.801 1011.533 1457.016 1099.338 1511.56 1170.72 1532.292 1257.06 1559.921 1372.122 1492.887 1526.894 1585.297 1600.807 1674.673 1672.2930000000001 1807.516 1588.276 1920 1567.165" fill="#122742"></path></g><defs><mask id="SvgjsMask1068"><rect width="1920" height="1080" fill="#ffffff"></rect></mask></defs></svg>