<svg xmlns="http://www.w3.org/2000/svg" version="1.1" xmlns:xlink="http://www.w3.org/1999/xlink" xmlns:svgjs="http://svgjs.dev/svgjs" width="1440" height="560" preserveAspectRatio="none" viewBox="0 0 1440 560"><g mask="url(&quot;#SvgjsMask1004&quot;)" fill="none"><rect width="1440" height="560" x="0" y="0" fill="rgba(14, 42, 71, 1)"></rect><path d="M0 112.33L10 130.7L20 91.2L30 149.43L40 148.98L50 107.35L60 141.11L70 158.29L80 89.31L90 57.75L100 87.02L110 56.14L120 62.35L130 14.02L140 10.94L150 71.13L160 104.5L170 93.85L180 138.9L190 147.4L200 93.89L210 79.15L220 145.35L230 77.95L240 119.92L250 51.63L260 2.71L270 16.26L280 53.41L290 77.17L300 133.12L310 107.43L320 43.7L330 44.07L340 76.67L350 126.95L360 60.57L370 89.03L380 158.31L390 174.88L400 212.79L410 258.58L420 317.6L430 257.4L440 206.8L450 178.16L460 150.41L470 122.45L480 103.68L490 150.69L500 101.12L510 105.62L520 152.53L530 148.57L540 146.84L550 118.04L560 118L570 146.38L580 178.05L590 170.46L600 141.93L610 120.52L620 119.8L630 107.3L640 84.99L650 97.2L660 89.41L670 149.92L680 212.9L690 258.38L700 271.98L710 231.86L720 202.64L730 154.33L740 202.41L750 171.85L760 158.77L770 133.27L780 99.79L790 109.4L800 100.82L810 52.05L820 38.18L830 95.92L840 34.8L850 79.39L860 138.01L870 118.34L880 182.98L890 241.54L900 227.1L910 225.39L920 168.63L930 190.48L940 184.69L950 131.58L960 166.83L970 230.01L980 249.62L990 253.63L1000 222.8L1010 249.83L1020 312.08L1030 336.67L1040 298.39L1050 328.32L1060 286.67L1070 268.85L1080 301.64L1090 271.56L1100 336.83L1110 392.63L1120 433.16L1130 381.65L1140 446.47L1150 506.68L1160 537.78L1170 498.85L1180 468L1190 408.48L1200 412.11L1210 442.62L1220 436.54L1230 475.59L1240 443.37L1250 446.86L1260 500.1L1270 538.81L1280 532.36L1290 511L1300 552.97L1310 490.82L1320 442.92L1330 498.64L1340 451.34L1350 474.66L1360 511.56L1370 540.96L1380 474.67L1390 426.16L1400 411.91L1410 350.18L1420 383.45L1430 422.81L1440 430.89" stroke="rgba(14, 22, 34, 1)" stroke-width="2"></path><path d="M0 112.33L10 130.7L20 91.2L30 149.43L40 148.98L50 107.35L60 141.11L70 158.29L80 89.31L90 57.75L100 87.02L110 56.14L120 62.35L130 14.02L140 10.94L150 71.13L160 104.5L170 93.85L180 138.9L190 147.4L200 93.89L210 79.15L220 145.35L230 77.95L240 119.92L250 51.63L260 2.71L270 16.26L280 53.41L290 77.17L300 133.12L310 107.43L320 43.7L330 44.07L340 76.67L350 126.95L360 60.57L370 89.03L380 158.31L390 174.88L400 212.79L410 258.58L420 317.6L430 257.4L440 206.8L450 178.16L460 150.41L470 122.45L480 103.68L490 150.69L500 101.12L510 105.62L520 152.53L530 148.57L540 146.84L550 118.04L560 118L570 146.38L580 178.05L590 170.46L600 141.93L610 120.52L620 119.8L630 107.3L640 84.99L650 97.2L660 89.41L670 149.92L680 212.9L690 258.38L700 271.98L710 231.86L720 202.64L730 154.33L740 202.41L750 171.85L760 158.77L770 133.27L780 99.79L790 109.4L800 100.82L810 52.05L820 38.18L830 95.92L840 34.8L850 79.39L860 138.01L870 118.34L880 182.98L890 241.54L900 227.1L910 225.39L920 168.63L930 190.48L940 184.69L950 131.58L960 166.83L970 230.01L980 249.62L990 253.63L1000 222.8L1010 249.83L1020 312.08L1030 336.67L1040 298.39L1050 328.32L1060 286.67L1070 268.85L1080 301.64L1090 271.56L1100 336.83L1110 392.63L1120 433.16L1130 381.65L1140 446.47L1150 506.68L1160 537.78L1170 498.85L1180 468L1190 408.48L1200 412.11L1210 442.62L1220 436.54L1230 475.59L1240 443.37L1250 446.86L1260 500.1L1270 538.81L1280 532.36L1290 511L1300 552.97L1310 490.82L1320 442.92L1330 498.64L1340 451.34L1350 474.66L1360 511.56L1370 540.96L1380 474.67L1390 426.16L1400 411.91L1410 350.18L1420 383.45L1430 422.81L1440 430.89L1440 560L0 560z" fill="url(&quot;#SvgjsLinearGradient1005&quot;)"></path></g><defs><mask id="SvgjsMask1004"><rect width="1440" height="560" fill="#ffffff"></rect></mask><linearGradient x1="50%" y1="0%" x2="50%" y2="100%" id="SvgjsLinearGradient1005"><stop stop-opacity="0.65" stop-color="rgba(14, 22, 34, 1)" offset="0"></stop><stop stop-opacity="0" stop-color="#1a2940" offset="0.8"></stop></linearGradient></defs></svg>